<mxfile host="app.diagrams.net" modified="2023-11-15T14:18:02.992Z" agent="Mozilla/5.0 (Windows NT 10.0; Win64; x64) AppleWebKit/537.36 (KHTML, like Gecko) Chrome/116.0.5845.837 YaBrowser/23.9.4.837 Yowser/2.5 Safari/537.36" version="22.1.1" etag="5ab3yF-1utt3f1_I95X7" type="github">
  <diagram name="Страница — 1" id="Gw12ane-YAdSTxb_6Br4">
    <mxGraphModel>
      <root>
        <mxCell id="0" />
        <mxCell id="1" parent="0" />
      </root>
    </mxGraphModel>
  </diagram>
</mxfile>
